<svg width="1599" height="1855" viewBox="0 0 1599 1855" fill="none" xmlns="http://www.w3.org/2000/svg">
<circle cx="857" cy="366" r="75" fill="white"/>
<circle cx="857" cy="366" r="113" fill="white" fill-opacity="0.8"/>
<circle cx="857" cy="366" r="152" fill="white" fill-opacity="0.6"/>
<circle cx="857" cy="366" r="190" fill="white" fill-opacity="0.4"/>
<circle cx="857" cy="366" r="228" fill="white" fill-opacity="0.2"/>
<path d="M1479.88 855.407C1519.78 843.804 1596.58 850.572 1630 855.407V1207H1195.26L1183.67 1135.48C1181.49 1115.31 1183.37 1066.36 1208.36 1031.95C1239.59 988.942 1284.93 1020.95 1302.56 971.437C1320.19 921.924 1379.63 908.421 1404.32 892.917C1429 877.412 1430.01 869.911 1479.88 855.407Z" fill="#100F45"/>
<rect x="29" y="1090" width="1599" height="235" fill="url(#paint0_linear_24_25)"/>
<path d="M1265 1158H1177H1145C1149.89 1154.4 1161.53 1146.93 1169 1145.85C1178.33 1144.5 1181 1135.06 1194.33 1132.36C1207.67 1129.66 1213 1143.16 1217 1140.46C1221 1137.76 1241 1133.71 1247.67 1143.16C1253 1150.71 1261.44 1156.2 1265 1158Z" fill="#100F45" fill-opacity="0.7"/>
<path d="M956.397 1150.63C957.873 1148.39 959.841 1146.15 963.778 1148.39C964.434 1148.39 966.337 1148.17 968.698 1147.27C971.651 1146.15 974.603 1142.78 976.571 1147.27C978.146 1150.86 980.18 1153.25 981 1154H950C951.64 1153.63 955.216 1152.43 956.397 1150.63Z" fill="#100F45" fill-opacity="0.7"/>
<path d="M1037.4 1118.63C1038.87 1116.39 1040.84 1114.15 1044.78 1116.39C1045.43 1116.39 1047.34 1116.17 1049.7 1115.27C1052.65 1114.15 1055.6 1110.78 1057.57 1115.27C1059.15 1118.86 1061.18 1121.25 1062 1122H1031C1032.64 1121.63 1036.22 1120.43 1037.4 1118.63Z" fill="#100F45" fill-opacity="0.7"/>
<path d="M1385.4 1203.63C1386.87 1201.39 1388.84 1199.15 1392.78 1201.39C1393.43 1201.39 1395.34 1201.17 1397.7 1200.27C1400.65 1199.15 1403.6 1195.78 1405.57 1200.27C1407.15 1203.86 1409.18 1206.25 1410 1207H1379C1380.64 1206.63 1384.22 1205.43 1385.4 1203.63Z" fill="#100F45" fill-opacity="0.7"/>
<path d="M1466.4 1171.63C1467.87 1169.39 1469.84 1167.15 1473.78 1169.39C1474.43 1169.39 1476.34 1169.17 1478.7 1168.27C1481.65 1167.15 1484.6 1163.78 1486.57 1168.27C1488.15 1171.86 1490.18 1174.25 1491 1175H1460C1461.64 1174.63 1465.22 1173.43 1466.4 1171.63Z" fill="#100F45" fill-opacity="0.7"/>
<path d="M897.206 1107.63C900.254 1105.39 904.317 1103.15 912.444 1105.39C913.799 1105.39 917.727 1105.17 922.603 1104.27C928.698 1103.15 934.794 1099.78 938.857 1104.27C942.108 1107.86 946.307 1110.25 948 1111H884C887.386 1110.63 894.768 1109.43 897.206 1107.63Z" fill="#100F45" fill-opacity="0.7"/>
<path d="M975.714 1238.41C979.571 1230.68 984.714 1222.95 995 1230.68C996.714 1230.68 1001.69 1229.9 1007.86 1226.81C1015.57 1222.95 1023.29 1211.35 1028.43 1226.81C1032.54 1239.18 1037.86 1247.42 1040 1250H959C963.286 1248.71 972.629 1244.59 975.714 1238.41Z" fill="#100F45" fill-opacity="0.7"/>
<path d="M1180.4 1240.63C1181.87 1238.39 1183.84 1236.15 1187.78 1238.39C1188.43 1238.39 1190.34 1238.17 1192.7 1237.27C1195.65 1236.15 1198.6 1232.78 1200.57 1237.27C1202.15 1240.86 1204.18 1243.25 1205 1244H1174C1175.64 1243.63 1179.22 1242.43 1180.4 1240.63Z" fill="#100F45" fill-opacity="0.7"/>
<path d="M1093.72 1209.19C928.978 1211.19 753.812 1176.03 686.822 1158.2C679.012 1158.2 602.74 1144.11 360.134 1087.73C56.8761 1017.25 -155.359 1091.73 -158.964 1245.68C-162.569 1399.62 104.19 1529.58 561.104 1695.53C1018.02 1861.47 1369.04 1619.55 1534.86 1577.07C1700.68 1534.58 1606.51 1320.15 1572.26 1245.68C1538.02 1171.2 1299.65 1206.69 1093.72 1209.19Z" fill="#100F45"/>
<path d="M-18.5 686.5C-62.9 712.5 -130.667 705 -159 698V1324.5H827C831.5 1281.67 837.8 1185.7 827 1144.5C813.5 1093 758.5 1007 690 980.5C621.5 954 612 967 581.5 951C551 935 505 889.5 461 879.5C417 869.5 385 868.5 325 843.5C265 818.5 228 755.5 172 698C116 640.5 37 654 -18.5 686.5Z" fill="#100F45"/>
<path d="M432.578 521.5C431.378 523.5 430.078 527.333 429.578 529L443.078 536.5C447.578 539 448.578 540 450.078 543.5C451.578 547 453.578 547 456.578 550.5C459.578 554 461.578 557 464.078 559C466.578 561 463.578 567 465.578 573.249C467.578 579.499 466.078 578.5 465.578 579.5C465.078 580.5 465.578 592.5 474.078 611.5C482.578 630.5 491.578 675 493.078 680C494.563 684.949 496.537 684.51 500.941 683.531L501.078 683.5C505.578 682.5 505.078 691.5 504.578 694.5C504.078 697.5 495.078 695 493.578 696C492.078 697 496.578 700.5 495.578 704.5C494.578 708.5 496.078 713.5 496.578 716C497.078 718.5 492.578 722.5 488.578 723C484.578 723.5 485.578 724 483.078 724.5C481.078 724.9 479.912 723.667 479.578 723C479.745 728 479.778 740.3 478.578 749.5C477.078 761 477.078 767.5 478.078 776.5C479.078 785.5 476.078 797 475.078 801.5C474.078 806 471.578 810 473.078 812C474.578 814 472.078 826 470.578 837C469.078 848 467.578 869 467.578 875.5C467.578 882 468.578 883 467.078 886.5C465.578 890 469.578 893 467.578 895C465.578 897 468.578 899 474.578 903.5C480.578 908 485.078 910 496.578 917.5C508.078 925 510.078 927.5 507.078 932C504.078 936.5 484.578 934 465.578 934C446.578 934 412.078 937 411.078 934C410.078 931 411.078 930.5 414.078 924.5C417.078 918.5 414.078 911.5 413.078 901.5C412.078 891.5 409.578 878.5 407.578 866C405.578 853.5 406.078 838.5 407.578 823C409.078 807.5 412.578 786.5 411.078 777C409.578 767.5 407.078 758.5 406.078 750.5C405.078 742.5 399.078 723 395.078 716C391.078 709 380.578 692.5 379.078 682.5C377.578 672.5 373.578 661.5 371.078 655.5C368.578 649.5 365.578 635.5 364.078 625C362.578 614.5 360.578 582.5 361.078 576C361.578 569.5 362.578 565.5 365.078 561C367.578 556.5 372.578 551.5 374.578 548.5C376.578 545.5 379.578 540 382.578 537C385.578 534 388.578 532.5 389.578 531C390.578 529.5 396.078 527.5 396.578 525.5C397.078 523.5 397.578 524 400.578 521C402.978 518.6 403.245 514.333 403.078 512.5C402.912 513.5 401.978 515.7 399.578 516.5C397.178 517.3 395.245 516.167 394.578 515.5C395.245 515.833 396.978 516.4 398.578 516C400.578 515.5 401.078 511.5 398.578 512C396.078 512.5 393.078 511 392.578 509.5C392.078 508 395.078 507.5 394.078 504C393.278 501.2 392.078 504.833 391.578 507C391.245 506.833 390.678 506.1 391.078 504.5C391.578 502.5 393.578 501.5 389.578 503C386.378 504.2 384.245 501.5 383.578 500C384.078 500.5 385.578 501.4 387.578 501C390.078 500.5 390.078 499 388.078 498.5C386.478 498.1 385.078 496.333 384.578 495.5C385.578 496 387.878 496.9 389.078 496.5C390.578 496 391.078 494.5 389.578 493C388.078 491.5 387.578 490 388.578 489.5C389.578 489 388.578 486.5 386.078 485C383.578 483.5 381.578 484 380.078 481C378.578 478 382.578 478 380.078 476C378.078 474.4 379.578 472 380.578 471C380.912 472.5 382.078 475.1 384.078 473.5C386.578 471.5 387.578 470.5 387.578 468C387.578 465.5 394.078 462 390.578 462.5C387.778 462.9 386.078 462 385.578 461.5C387.245 461.667 391.078 461.6 393.078 460C395.578 458 394.078 456 397.078 455C400.078 454 400.078 456 402.578 455C405.078 454 405.078 450.5 409.078 448C413.078 445.5 420.578 451 419.578 448.5C418.778 446.5 419.245 444.667 419.578 444C420.078 445.333 421.478 448.3 423.078 449.5C425.078 451 426.578 450.5 427.578 448C428.378 446 426.912 444.5 426.078 444C426.578 444 427.878 444.4 429.078 446C430.578 448 429.078 449.5 428.078 451.5C427.078 453.5 431.078 452 435.078 455C439.078 458 442.078 465 445.578 468.5C449.078 472 454.578 470 452.078 473C450.078 475.4 446.245 474.333 444.578 473.5C445.078 474 445.878 475.4 445.078 477C444.078 479 443.578 481.5 445.578 484C447.578 486.5 447.078 494.5 446.578 499.5C446.078 504.5 445.578 509 442.578 511C439.578 513 436.578 512 436.078 514.5C435.578 517 434.078 519 432.578 521.5Z" fill="#100F45"/>
<defs>
<linearGradient id="paint0_linear_24_25" x1="1334" y1="774.54" x2="1329.09" y2="1430.75" gradientUnits="userSpaceOnUse">
<stop offset="0.0618581" stop-color="#40136C"/>
<stop offset="0.320318" stop-color="#830B53"/>
<stop offset="1" stop-color="#100F45"/>
</linearGradient>
</defs>
</svg>
