<svg width="589" height="200" viewBox="0 0 589 200" fill="none" xmlns="http://www.w3.org/2000/svg">
<path d="M161.712 129V70.2H172.464L200.1 111.612V70.2H210.852V129H200.1L172.464 87.672V129H161.712ZM237.623 130.008C232.415 130.008 228.383 128.384 225.527 125.136C222.727 121.888 221.327 117.128 221.327 110.856V87.336H231.995V109.848C231.995 113.432 232.723 116.176 234.179 118.08C235.635 119.984 237.931 120.936 241.067 120.936C244.035 120.936 246.471 119.872 248.375 117.744C250.335 115.616 251.315 112.648 251.315 108.84V87.336H262.067V129H252.575L251.735 121.944C250.447 124.408 248.571 126.368 246.107 127.824C243.699 129.28 240.871 130.008 237.623 130.008ZM273.105 129V87.336H282.597L283.437 94.392C284.725 91.928 286.573 89.968 288.981 88.512C291.445 87.056 294.329 86.328 297.633 86.328C302.785 86.328 306.789 87.952 309.645 91.2C312.501 94.448 313.929 99.208 313.929 105.48V129H303.177V106.488C303.177 102.904 302.449 100.16 300.993 98.256C299.537 96.352 297.269 95.4 294.189 95.4C291.165 95.4 288.673 96.464 286.713 98.592C284.809 100.72 283.857 103.688 283.857 107.496V129H273.105ZM344.202 130.008C340.17 130.008 336.53 129.084 333.282 127.236C330.09 125.388 327.542 122.84 325.638 119.592C323.79 116.288 322.866 112.48 322.866 108.168C322.866 103.856 323.818 100.076 325.722 96.828C327.626 93.524 330.174 90.948 333.366 89.1C336.614 87.252 340.254 86.328 344.286 86.328C348.262 86.328 351.846 87.252 355.038 89.1C358.286 90.948 360.834 93.524 362.682 96.828C364.586 100.076 365.538 103.856 365.538 108.168C365.538 112.48 364.586 116.288 362.682 119.592C360.834 122.84 358.286 125.388 355.038 127.236C351.79 129.084 348.178 130.008 344.202 130.008ZM344.202 120.684C347.002 120.684 349.438 119.648 351.51 117.576C353.582 115.448 354.618 112.312 354.618 108.168C354.618 104.024 353.582 100.916 351.51 98.844C349.438 96.716 347.03 95.652 344.286 95.652C341.43 95.652 338.966 96.716 336.894 98.844C334.878 100.916 333.87 104.024 333.87 108.168C333.87 112.312 334.878 115.448 336.894 117.576C338.966 119.648 341.402 120.684 344.202 120.684ZM399.847 130.008C396.711 130.008 393.967 129.42 391.615 128.244C389.263 127.068 387.359 125.416 385.903 123.288L384.727 129H375.151V68.52H385.903V93.3C387.247 91.452 389.011 89.828 391.195 88.428C393.435 87.028 396.319 86.328 399.847 86.328C403.767 86.328 407.267 87.28 410.347 89.184C413.427 91.088 415.863 93.692 417.655 96.996C419.447 100.3 420.343 104.052 420.343 108.252C420.343 112.452 419.447 116.204 417.655 119.508C415.863 122.756 413.427 125.332 410.347 127.236C407.267 129.084 403.767 130.008 399.847 130.008ZM397.579 120.6C400.995 120.6 403.823 119.452 406.063 117.156C408.303 114.86 409.423 111.892 409.423 108.252C409.423 104.612 408.303 101.616 406.063 99.264C403.823 96.912 400.995 95.736 397.579 95.736C394.107 95.736 391.251 96.912 389.011 99.264C386.827 101.56 385.735 104.528 385.735 108.168C385.735 111.808 386.827 114.804 389.011 117.156C391.251 119.452 394.107 120.6 397.579 120.6ZM431.383 147.48L441.043 126.228H438.523L422.311 87.336H433.987L445.663 116.652L457.843 87.336H469.267L442.807 147.48H431.383ZM494.86 129C490.492 129 486.992 127.936 484.36 125.808C481.728 123.68 480.412 119.9 480.412 114.468V96.324H473.272V87.336H480.412L481.672 76.164H491.164V87.336H502.42V96.324H491.164V114.552C491.164 116.568 491.584 117.968 492.424 118.752C493.32 119.48 494.832 119.844 496.96 119.844H502.168V129H494.86ZM530.829 130.008C526.629 130.008 522.905 129.112 519.657 127.32C516.409 125.528 513.861 123.008 512.013 119.76C510.165 116.512 509.241 112.76 509.241 108.504C509.241 104.192 510.137 100.356 511.929 96.996C513.777 93.636 516.297 91.032 519.489 89.184C522.737 87.28 526.545 86.328 530.913 86.328C535.001 86.328 538.613 87.224 541.749 89.016C544.885 90.808 547.321 93.272 549.057 96.408C550.849 99.488 551.745 102.932 551.745 106.74C551.745 107.356 551.717 108 551.661 108.672C551.661 109.344 551.633 110.044 551.577 110.772H519.909C520.133 114.02 521.253 116.568 523.269 118.416C525.341 120.264 527.833 121.188 530.745 121.188C532.929 121.188 534.749 120.712 536.205 119.76C537.717 118.752 538.837 117.464 539.565 115.896H550.485C549.701 118.528 548.385 120.936 546.537 123.12C544.745 125.248 542.505 126.928 539.817 128.16C537.185 129.392 534.189 130.008 530.829 130.008ZM530.913 95.064C528.281 95.064 525.957 95.82 523.941 97.332C521.925 98.788 520.637 101.028 520.077 104.052H540.825C540.657 101.308 539.649 99.124 537.801 97.5C535.953 95.876 533.657 95.064 530.913 95.064Z" fill="white"/>
<path d="M83.1227 65.1522L110.949 79.8617C115.08 82.0434 115.08 87.9605 110.949 90.1382L106.012 92.75L110.949 95.3617C115.08 97.5434 115.08 103.46 110.949 105.638L106.012 108.25L110.949 110.862C115.08 113.043 115.08 118.96 110.949 121.138L83.1227 135.848C82.0062 136.438 80.7624 136.747 79.4995 136.747C78.2366 136.747 76.9928 136.438 75.8764 135.848L48.05 121.138C43.9193 118.957 43.9193 113.043 48.05 110.862L52.9907 108.25L48.05 105.638C43.9193 103.457 43.9193 97.5434 48.05 95.3617L52.9907 92.75L48.05 90.1382C43.9193 87.9566 43.9193 82.0434 48.05 79.8617L75.8764 65.1522C76.9928 64.5618 78.2366 64.2532 79.4995 64.2532C80.7624 64.2532 82.0062 64.5618 83.1227 65.1522ZM97.7198 112.633L83.1227 120.348C82.0062 120.938 80.7624 121.247 79.4995 121.247C78.2366 121.247 76.9928 120.938 75.8764 120.348L61.2793 112.636L54.9127 116L79.4995 128.997L104.09 116L97.7198 112.633ZM97.7198 97.1326L83.1227 104.852C82.1103 105.386 80.9921 105.69 79.8484 105.741C78.7047 105.792 77.5639 105.589 76.508 105.146L75.8764 104.852L61.2793 97.1326L54.9127 100.504L79.4995 113.493L104.09 100.5L97.7198 97.1326ZM79.4995 72.0032L54.9127 85L79.4995 97.9967L104.09 85L79.4995 72.0032Z" fill="white"/>
</svg>
