<svg width="128" height="128" viewBox="0 0 128 128" fill="none" xmlns="http://www.w3.org/2000/svg">
<path d="M68.6458 15.2737L106.756 35.4192C112.413 38.4071 112.413 46.5109 106.756 49.4935L99.9944 53.0704L106.756 56.6473C112.413 59.6352 112.413 67.7391 106.756 70.7216L99.9944 74.2986L106.756 77.8755C112.413 80.8634 112.413 88.9672 106.756 91.9498L68.6458 112.095C67.1168 112.904 65.4133 113.327 63.6837 113.327C61.954 113.327 60.2506 112.904 58.7216 112.095L20.6118 91.9498C14.9544 88.9619 14.9544 80.8634 20.6118 77.8755L27.3782 74.2986L20.6118 70.7216C14.9544 67.7338 14.9544 59.6352 20.6118 56.6473L27.3782 53.0704L20.6118 49.4935C14.9544 46.5056 14.9544 38.4071 20.6118 35.4192L58.7216 15.2737C60.2506 14.4651 61.954 14.0424 63.6837 14.0424C65.4133 14.0424 67.1168 14.4651 68.6458 15.2737ZM88.6374 80.3008L68.6458 90.8671C67.1168 91.6757 65.4133 92.0984 63.6837 92.0984C61.954 92.0984 60.2506 91.6757 58.7216 90.8671L38.73 80.3061L30.0105 84.9126L63.6837 102.712L97.3622 84.9126L88.6374 80.3008ZM88.6374 59.0727L68.6458 69.6443C67.2593 70.3765 65.7278 70.7924 64.1615 70.8621C62.5951 70.9318 61.0327 70.6537 59.5867 70.0476L58.7216 69.6443L38.73 59.0727L30.0105 63.6898L63.6837 81.479L97.3622 63.6845L88.6374 59.0727ZM63.6837 24.6565L30.0105 42.4563L63.6837 60.2561L97.3622 42.4563L63.6837 24.6565Z" fill="white"/>
</svg>
